<svg width="96" height="94" viewBox="0 0 96 94" fill="none" xmlns="http://www.w3.org/2000/svg">
<path d="M47.18 82.25H20C17.8783 82.25 15.8434 81.4247 14.3431 79.9557C12.8429 78.4866 12 76.4942 12 74.4167V27.4167C12 25.3391 12.8429 23.3467 14.3431 21.8777C15.8434 20.4086 17.8783 19.5833 20 19.5833H68C70.1217 19.5833 72.1566 20.4086 73.6568 21.8777C75.1571 23.3467 76 25.3391 76 27.4167V43.0833" stroke="black" stroke-width="2" stroke-linecap="round" stroke-linejoin="round"/>
<path d="M72 86.1667C80.8366 86.1667 88 79.1525 88 70.5C88 61.8475 80.8366 54.8333 72 54.8333C63.1634 54.8333 56 61.8475 56 70.5C56 79.1525 63.1634 86.1667 72 86.1667Z" stroke="black" stroke-width="2" stroke-linecap="round" stroke-linejoin="round"/>
<path d="M60 11.75V27.4167" stroke="black" stroke-width="2" stroke-linecap="round" stroke-linejoin="round"/>
<path d="M28 11.75V27.4167" stroke="black" stroke-width="2" stroke-linecap="round" stroke-linejoin="round"/>
<path d="M12 43.0833H76" stroke="black" stroke-width="2" stroke-linecap="round" stroke-linejoin="round"/>
<path d="M72 64.6093V70.5L76 74.4167" stroke="black" stroke-width="2" stroke-linecap="round" stroke-linejoin="round"/>
</svg>
