<svg width="84" height="86" viewBox="0 0 84 86" fill="none" xmlns="http://www.w3.org/2000/svg">
<path d="M21 71.6667V64.5C21 58.7978 23.2125 53.3292 27.1508 49.2972C31.089 45.2652 36.4305 43 42 43C47.5695 43 52.911 45.2652 56.8492 49.2972C60.7875 53.3292 63 58.7978 63 64.5V71.6667C63 72.617 62.6313 73.5285 61.9749 74.2005C61.3185 74.8725 60.4283 75.25 59.5 75.25H24.5C23.5717 75.25 22.6815 74.8725 22.0251 74.2005C21.3687 73.5285 21 72.617 21 71.6667Z" stroke="black" stroke-width="2" stroke-linecap="round" stroke-linejoin="round"/>
<path d="M21 14.3333V21.5C21 27.2022 23.2125 32.6708 27.1508 36.7028C31.089 40.7348 36.4305 43 42 43C47.5695 43 52.911 40.7348 56.8492 36.7028C60.7875 32.6708 63 27.2022 63 21.5V14.3333C63 13.383 62.6313 12.4715 61.9749 11.7995C61.3185 11.1275 60.4283 10.75 59.5 10.75H24.5C23.5717 10.75 22.6815 11.1275 22.0251 11.7995C21.3687 12.4715 21 13.383 21 14.3333V14.3333Z" stroke="black" stroke-width="2" stroke-linecap="round" stroke-linejoin="round"/>
</svg>
