<svg width="84" height="97" viewBox="0 0 84 97" fill="none" xmlns="http://www.w3.org/2000/svg">
<path d="M42 28.2917C45.866 28.2917 49 24.6726 49 20.2083C49 15.744 45.866 12.125 42 12.125C38.134 12.125 35 15.744 35 20.2083C35 24.6726 38.134 28.2917 42 28.2917Z" stroke="black" stroke-width="2" stroke-linecap="round" stroke-linejoin="round"/>
<path d="M35 88.9167V68.7083L31.5 64.6667V48.5C31.5 47.4281 31.8687 46.4001 32.5251 45.6421C33.1815 44.8842 34.0717 44.4583 35 44.4583H49C49.9283 44.4583 50.8185 44.8842 51.4749 45.6421C52.1313 46.4001 52.5 47.4281 52.5 48.5V64.6667L49 68.7083V88.9167" stroke="black" stroke-width="2" stroke-linecap="round" stroke-linejoin="round"/>
</svg>
